PathFileType	4	(X/Y/Z)	C:\Users\Basilio\Documents\Thesis Gigler\squatting_fais\c3dfiles\075\SLS_back_pre1\markers_experimental.trc
DataRate	CameraRate	NumFrames	NumMarkers	Units	OrigDataRate	OrigDataStartFrame	OrigNumFrames
200.000000	200.000000	4	61	mm	200.000000	508	1357
Frame#	Time	FHD			LBHD			C7			T10			CLAV			LSHO			LUUPA			LMUPA			LDUPA			LLEP			LMEP			LRAD			LUL			LRFIN			RSHO			RUPA1			RMUPA			RDUPA			RLEP			RMEP			RRAD			RUL			RUFIN			LASI			RASI			USACR			LSACR			RSACR			LTHI1			LTHI2			LTHI3			LTHI4			LLFC			LMFC			LTIB1			LTIB2			LTIB3			LTIB4			LLMAL			LMMAL			LHEE			LMT1			LMT2			LMT5			RTHI			RTHI2			RTHI3			RTHI4			RLFC			RMFC			RTIB1			RTIB2			RTIB3			RTIB4			RLMAL			RMMAL			RHEE			RMT1			RMT2			RMT5			RBHD			
		X1	Y1	Z1	X2	Y2	Z2	X3	Y3	Z3	X4	Y4	Z4	X5	Y5	Z5	X6	Y6	Z6	X7	Y7	Z7	X8	Y8	Z8	X9	Y9	Z9	X10	Y10	Z10	X11	Y11	Z11	X12	Y12	Z12	X13	Y13	Z13	X14	Y14	Z14	X15	Y15	Z15	X16	Y16	Z16	X17	Y17	Z17	X18	Y18	Z18	X19	Y19	Z19	X20	Y20	Z20	X21	Y21	Z21	X22	Y22	Z22	X23	Y23	Z23	X24	Y24	Z24	X25	Y25	Z25	X26	Y26	Z26	X27	Y27	Z27	X28	Y28	Z28	X29	Y29	Z29	X30	Y30	Z30	X31	Y31	Z31	X32	Y32	Z32	X33	Y33	Z33	X34	Y34	Z34	X35	Y35	Z35	X36	Y36	Z36	X37	Y37	Z37	X38	Y38	Z38	X39	Y39	Z39	X40	Y40	Z40	X41	Y41	Z41	X42	Y42	Z42	X43	Y43	Z43	X44	Y44	Z44	X45	Y45	Z45	X46	Y46	Z46	X47	Y47	Z47	X48	Y48	Z48	X49	Y49	Z49	X50	Y50	Z50	X51	Y51	Z51	X52	Y52	Z52	X53	Y53	Z53	X54	Y54	Z54	X55	Y55	Z55	X56	Y56	Z56	X57	Y57	Z57	X58	Y58	Z58	X59	Y59	Z59	X60	Y60	Z60	X61	Y61	Z61	

509	2.54	-179.2077941894532	1545.318481445313	-737.6871948242189	-328.1779785156251	1443.657104492188	-821.627380371094	-377.2113037109376	1337.072387695313	-772.520690917969	-477.4780578613282	1035.523193359375	-782.0552978515627	-244.853012084961	1253.133422851563	-766.3060302734376	-265.7839050292969	1312.657104492188	-899.7628173828127	-122.1725997924805	1235.08203125	-995.4612426757815	-94.14390563964845	1255.294311523438	-960.1337890625002	-53.49113082885744	1226.559936523438	-993.676696777344	29.53257560729981	1214.501342773438	-978.3327636718752	6.887874603271486	1139.919311523438	-939.7298583984377	nan	nan	nan	246.173812866211	1230.706909179688	-835.1428833007815	240.8181762695313	1252.258056640625	-728.9559326171876	-284.6629333496094	1293.037109375	-628.2695922851564	-167.5918731689453	1206.171752929688	-502.7497863769532	-128.9220275878907	1224.506713867188	-526.6192016601564	-100.9572448730469	1190.326416015625	-484.1468505859376	-29.40129089355469	1181.174438476563	-479.8912963867189	-24.10338020324708	1107.668823242188	-510.7969970703126	172.4155426025391	1228.693603515625	-668.8421020507814	200.7583770751954	1218.77197265625	-596.4160156250001	248.4201202392579	1266.905029296875	-691.1313476562501	-372.8448181152344	842.5954589843752	-925.441589355469	-363.4703369140626	829.1982421875002	-673.9603881835939	-505.529510498047	937.144470214844	-792.2631835937502	-520.5578002929689	910.3845825195315	-821.8689575195315	-520.7813110351564	907.0950927734377	-763.6506958007814	-380.6880493164063	638.5923461914064	-1026.484497070313	-330.6231384277344	570.5192260742189	-1035.95263671875	-292.1885070800782	578.4099121093751	-1005.711730957031	-346.3902282714844	512.0400390625001	-1046.01220703125	-346.3326721191407	423.6613159179689	-1048.11669921875	-338.8995361328126	376.4279479980469	-921.8602294921877	-418.4328918457032	315.4429931640626	-1021.413208007813	-475.1741943359376	363.5677795410157	-1068.881958007813	-467.8745727539064	322.7649230957032	-1052.6572265625	-544.7614746093751	299.2485961914063	-1025.255859375	-700.9674682617189	336.3756408691407	-1042.36328125	-678.7562255859376	303.4324340820313	-964.2725219726565	-738.3764648437501	380.8974304199219	-994.0382080078127	-733.7402954101564	171.3205718994141	-981.539978027344	-734.4725341796876	169.763900756836	-1032.24755859375	-763.9995727539064	210.3214416503907	-1075.934936523438	-378.4108276367188	661.7341308593751	-614.8690185546876	-315.0160522460938	642.1060791015626	-618.0864868164064	-292.7473754882813	665.8750610351564	-627.1424560546876	-288.4602966308594	562.6358032226564	-626.6965332031251	-223.8596801757813	438.2962036132814	-671.7066040039064	-195.0216217041016	456.1983337402345	-790.8552246093752	-209.7786407470704	308.1453552246094	-763.0953979492189	-280.9985961914063	242.5453186035157	-712.2531127929689	-252.0051422119141	231.9192199707032	-750.0042724609376	-282.4002990722657	204.7270202636719	-792.0672607421877	-390.2280883789064	111.7489776611328	-763.8055419921876	-357.1445922851563	142.1980285644532	-843.7527465820315	-448.8254394531251	97.9264831542969	-824.3627929687502	-247.145248413086	56.75099945068361	-835.2069091796877	-246.0487060546876	56.45006561279298	-792.7296142578127	-283.8827819824219	34.74277114868165	-741.2910156250001	nan	nan	nan	
510	2.545	-178.5896453857422	1544.161376953125	-737.6160278320314	-327.3575134277344	1442.449829101563	-821.387634277344	-376.5475769042969	1336.289428710938	-772.2982177734377	-477.5505981445314	1034.821899414063	-782.030944824219	-244.5033569335938	1251.817626953125	-766.1928710937501	-265.2405395507813	1311.567260742188	-899.4981079101565	-121.6698150634766	1233.937744140625	-995.3516845703127	-93.72818756103517	1254.13818359375	-960.0921020507815	-53.25366210937501	1225.253662109375	-993.7148437500002	29.8807487487793	1213.101440429688	-978.0986328125002	7.615203380584719	1138.589111328125	-939.4378051757815	nan	nan	nan	246.6169891357422	1228.956909179688	-835.0234985351565	241.3811035156251	1250.4716796875	-728.8513793945314	-284.2783203125001	1291.908203125	-628.1070556640626	-167.1911315917969	1204.987915039063	-502.6607971191407	-128.5283508300782	1223.218139648438	-526.5253906250001	-100.6520385742188	1189.018920898438	-484.0404357910157	-29.0702075958252	1179.864990234375	-479.7871704101564	-23.74481964111328	1106.421630859375	-510.6592407226564	172.8326110839844	1226.894409179688	-668.7807006835939	201.1675567626954	1217.153198242188	-596.2771606445314	248.8864440917969	1265.212036132813	-691.0314331054689	-373.2404174804688	841.8027343750002	-925.4110107421877	-364.0661315917969	828.0690917968752	-673.9963989257814	-506.1831970214845	936.243591308594	-792.1014404296877	-520.8167114257814	909.8149414062502	-821.8363037109377	-521.1606445312501	906.3602294921877	-763.6578369140626	-381.3289184570313	638.0726318359376	-1026.614624023438	-331.1236267089844	569.8981933593751	-1036.176635742188	-292.8742675781251	577.6791381835939	-1005.926147460938	-346.9631347656251	511.5226440429689	-1046.18115234375	-347.0019226074219	423.0624084472657	-1048.465454101563	-339.6066589355469	375.7018432617188	-922.1773071289065	-419.1881713867189	314.8428649902344	-1022.254150390625	-475.817352294922	362.9097900390626	-1069.021362304688	-468.6404724121095	322.1962280273438	-1053.000732421875	-545.4166870117189	298.5627441406251	-1025.463500976563	-701.6091308593751	335.7228088378907	-1042.4912109375	-679.4476318359376	302.8554382324219	-964.4648437500002	-739.3304443359376	380.1531677246094	-994.228942871094	-734.0388183593751	170.7607727050782	-982.0119628906252	-733.9627075195314	168.9104309082032	-1031.5869140625	-764.5186767578126	209.6765594482422	-1076.22607421875	-378.8106689453126	661.1647949218751	-614.8717651367189	-315.3146057128907	641.6829833984376	-617.9225463867189	-293.0538330078126	665.4770507812501	-627.0250244140626	-288.6025085449219	562.2848510742189	-626.4912109375001	-223.7250518798829	438.0823669433595	-671.4893798828126	-194.8376922607422	456.011199951172	-790.6263427734377	-209.712387084961	308.0060119628907	-763.0319824218751	-280.9640197753907	242.4720306396485	-712.1743164062501	-251.9798126220704	231.7931060791016	-749.8850097656251	-282.3688964843751	204.6730194091797	-791.991149902344	-390.2583312988282	111.6917724609375	-763.7581787109376	-357.1589355468751	142.1817474365235	-843.7043457031252	-448.8380737304689	97.91084289550784	-824.3825683593752	-247.1641540527344	56.7770347595215	-835.2086181640627	-246.0220642089844	56.4278907775879	-792.6719970703127	-283.8977050781251	34.68408203125001	-741.2588500976564	nan	nan	nan	
511	2.55	-177.7465209960938	1542.86181640625	-737.2875976562501	-326.6976623535157	1441.506958007813	-821.2337036132815	-375.4498291015626	1335.110229492188	-772.463073730469	-477.6769409179689	1034.0068359375	-781.918151855469	-244.2247772216797	1250.6669921875	-766.0795288085939	-264.5815124511719	1310.4462890625	-899.2725830078127	-120.9902801513672	1232.69677734375	-995.1843872070315	-93.1327362060547	1252.871826171875	-959.877868652344	-52.41939926147462	1224.042236328125	-993.3714599609377	30.45405197143555	1211.91943359375	-978.0205078125002	7.569982051849367	1137.443237304688	-939.633972167969	nan	nan	nan	247.2391052246094	1227.418701171875	-834.9492797851565	241.7677154541016	1248.817016601563	-728.7784423828126	-283.7959899902344	1290.8876953125	-628.1008911132814	-166.9479217529297	1203.707641601563	-502.6130676269532	-128.1521453857422	1221.925537109375	-526.5264282226564	-100.3095169067383	1187.787841796875	-484.059539794922	-28.72580337524415	1178.559326171875	-479.7317199707032	-23.51465797424317	1105.037231445313	-510.5052795410157	173.3020324707032	1225.571166992188	-668.9984741210939	201.5100250244141	1215.51123046875	-596.2235717773439	249.3824768066407	1263.476318359375	-690.9426269531251	-373.6358337402344	840.8398437500002	-925.4160156250002	-364.0811767578126	827.560729980469	-673.8395385742189	-506.5185546875001	935.3380126953127	-791.9971313476565	-521.1019287109376	909.2042236328127	-821.8505859375002	-521.4769287109376	905.6292724609377	-763.5604248046876	-381.9256286621094	637.3987426757814	-1026.691162109375	-331.7681884765626	569.1353759765626	-1036.421508789063	-293.6133422851563	576.9281005859376	-1006.161987304688	-347.5523071289063	510.8780517578126	-1046.372924804688	-347.7832946777344	422.276580810547	-1048.738403320313	-340.2192077636719	375.0262145996094	-922.6406860351565	-419.8286437988282	314.1952819824219	-1022.32275390625	-476.529754638672	362.2206115722657	-1069.239624023438	-469.3788452148439	321.5392150878907	-1053.322265625	-546.5612182617189	298.0568847656251	-1026.625122070313	-702.9960937500001	335.4646301269532	-1043.2021484375	-680.0158691406251	302.2448120117188	-964.6387329101565	-740.1599731445314	379.5752868652344	-994.4091796875002	-734.6412353515626	170.0023345947266	-982.2570800781252	-734.7122802734376	168.4324035644532	-1032.116333007813	-765.2258300781251	209.0434112548829	-1076.319946289063	-379.1782226562501	660.5592651367189	-614.7962036132814	-315.7673950195313	641.1428222656251	-617.8410034179689	-293.4758911132813	665.0723876953126	-626.9382324218751	-288.7190856933594	561.8767700195314	-626.3786010742189	-223.6437225341797	437.8382873535157	-671.3947753906251	-194.5968170166016	455.7152099609376	-790.4297485351565	-209.6129913330079	307.8667907714844	-762.8923950195314	-280.9540710449219	242.3762969970704	-712.0802612304689	-251.9461822509766	231.7261199951172	-749.7540283203126	-282.3255004882813	204.594223022461	-791.8977661132815	-390.2908935546876	111.6749649047852	-763.7255249023439	-357.0891723632813	142.2106018066407	-843.7019042968752	-448.8472595214845	97.908805847168	-824.3484497070315	-247.1643829345704	56.76407623291017	-835.166198730469	-246.0499267578126	56.46791839599611	-792.6714477539065	-283.8794555664063	34.71776580810548	-741.2758789062501	nan	nan	nan	
512	2.555	-176.8572387695313	1541.596069335938	-737.0740966796876	-326.1255187988282	1440.534545898438	-820.9810180664065	-375.4811706542969	1334.355712890625	-771.963806152344	-477.7700805664064	1033.288696289063	-781.7847900390627	-243.8426361083985	1249.459594726563	-765.9638061523439	-264.0851440429688	1309.532470703125	-899.1828613281252	-121.5696258544922	1231.939331054688	-995.1665649414065	-92.66212463378908	1251.665649414063	-959.7260742187502	-52.01979827880861	1222.875732421875	-993.366149902344	30.89544677734376	1210.564575195313	-977.8243408203127	8.142636299133303	1135.902465820313	-939.4058227539065	nan	nan	nan	247.7365722656251	1225.687377929688	-834.754821777344	242.5682525634766	1246.925170898438	-728.5993041992189	-283.3056640625001	1289.704345703125	-627.9453735351564	-166.5178985595703	1202.491943359375	-502.5901184082032	-127.8329696655274	1220.7060546875	-526.3645019531251	-99.99021911621097	1186.508544921875	-483.983367919922	-28.38688468933106	1177.177734375	-479.6164550781251	-23.22172546386719	1103.724365234375	-510.4187316894532	173.7491912841797	1223.639282226563	-668.7027587890626	201.959457397461	1213.943115234375	-595.9685058593751	249.7309875488282	1261.674926757813	-690.8308105468751	-374.1532592773438	840.0718383789065	-925.3460083007815	-364.4870910644532	826.6997680664065	-673.9423828125001	-506.6929626464845	934.8176879882815	-791.9633789062502	-521.3900146484376	908.4597778320315	-821.7696533203127	-521.7940063476564	904.9683837890627	-763.5941772460939	-382.5681152343751	636.7395019531251	-1026.83642578125	-332.2969055175782	568.5227050781251	-1036.5546875	-294.0832824707032	576.2338867187501	-1006.537841796875	-348.1831054687501	510.1837768554689	-1046.623779296875	-348.2282714843751	421.5563354492189	-1049.063110351563	-340.6856079101563	374.3453063964844	-922.9248657226565	-420.3976135253907	313.4415283203126	-1022.501403808594	-477.2253723144532	361.7502441406251	-1069.608642578125	-469.7960205078126	320.7440795898438	-1053.406982421875	-547.1674804687501	297.3540649414063	-1026.767578125	-703.1085205078126	334.5596618652344	-1043.037475585938	-680.5964355468751	301.6217041015626	-964.7381591796877	-740.6483154296876	378.7618408203126	-994.5369873046877	-735.0861816406251	169.2493286132813	-982.3618774414065	-735.0650634765626	167.6806030273438	-1032.34521484375	-765.6530151367189	208.3633422851563	-1076.530395507813	-379.4797973632813	660.0133666992189	-614.7628784179689	-315.9733581542969	640.8795166015626	-617.7243652343751	-293.8123474121094	664.7374267578126	-626.8966674804689	-288.8338623046876	561.5357666015626	-626.2230834960939	-223.5154724121094	437.603973388672	-671.2389526367189	-194.4103088378907	455.5357666015626	-790.2604980468752	-209.4512939453126	307.6925964355469	-762.8135986328126	-280.9458007812501	242.2778320312501	-712.0051879882814	-251.8320007324219	231.5783691406251	-749.6311645507814	-282.3788757324219	204.5577850341797	-791.8990478515627	-390.2730407714845	111.6406860351563	-763.6924438476564	-357.0469055175782	142.1918487548828	-843.6711425781252	-448.9314880371095	97.91587829589847	-824.356140136719	-247.1656494140626	56.80098342895509	-835.1699218750002	-246.0601654052735	56.48372268676759	-792.6231079101565	-283.9170837402344	34.70518493652344	-741.2695922851564	nan	nan	nan	
